<?xml version="1.0" encoding="UTF-8"?>
<svg width="20px" height="22px" viewBox="0 0 20 22" version="1.1" xmlns="http://www.w3.org/2000/svg" xmlns:xlink="http://www.w3.org/1999/xlink">
    <!-- Generator: Sketch 41.2 (35397) - http://www.bohemiancoding.com/sketch -->
    <title>Shape</title>
    <desc>Created with Sketch.</desc>
    <defs></defs>
    <g id="OrderCentre" stroke="none" stroke-width="1" fill="none" fill-rule="evenodd">
        <g id="1550-OrderPage" transform="translate(-251.000000, -681.000000)" fill="#00A3DA">
            <g id="details_info2" transform="translate(110.000000, 309.000000)">
                <g id="Group-15" transform="translate(20.000000, 18.000000)">
                    <g id="quote_number">
                        <g id="Group-4">
                            <g id="due_date" transform="translate(0.000000, 318.000000)">
                                <g id="date_picker" transform="translate(0.000000, 26.000000)">
                                    <g id="Group-3" transform="translate(110.000000, 0.000000)">
                                        <path d="M30.3333333,31.3326667 L11.6666667,31.3326667 C11.298,31.3326667 11,31.034 11,30.666 L11,10.666 C11,10.2986667 11.298,10 11.6666667,10 L29,10 L29,10 L30.3333333,10 C30.7013333,10 31,10.2986667 31,10.666 L31,30.666 C31,31.034 30.7013333,31.3326667 30.3333333,31.3326667 L30.3333333,31.3326667 Z M29.6666667,11.3326667 L12.3333333,11.3326667 L12.3333333,13.9993333 L29.6666667,13.9993333 L29.6666667,11.3326667 L29.6666667,11.3326667 Z M29.6666667,15.3326667 L12.3333333,15.3326667 L12.3333333,30 L29.6666667,30 L29.6666667,15.3326667 L29.6666667,15.3326667 Z M24.3333333,24.666 L27,24.666 L27,27.3333333 L24.3333333,27.3333333 L24.3333333,24.666 L24.3333333,24.666 Z M24.3333333,19.3326667 L27,19.3326667 L27,22 L24.3333333,22 L24.3333333,19.3326667 L24.3333333,19.3326667 Z M19.6666667,24.666 L22.3333333,24.666 L22.3333333,27.3333333 L19.6666667,27.3333333 L19.6666667,24.666 L19.6666667,24.666 Z M19.6666667,19.3326667 L22.3333333,19.3326667 L22.3333333,22 L19.6666667,22 L19.6666667,19.3326667 L19.6666667,19.3326667 Z M15,24.666 L17.6666667,24.666 L17.6666667,27.3333333 L15,27.3333333 L15,24.666 L15,24.666 Z M15,19.3326667 L17.6666667,19.3326667 L17.6666667,22 L15,22 L15,19.3326667 L15,19.3326667 Z" id="Shape"></path>
                                    </g>
                                </g>
                            </g>
                        </g>
                    </g>
                </g>
            </g>
        </g>
    </g>
</svg>