<?xml version="1.0" encoding="UTF-8"?>
<svg width="12px" height="10px" viewBox="0 0 12 10" version="1.1" xmlns="http://www.w3.org/2000/svg" xmlns:xlink="http://www.w3.org/1999/xlink">
    <!-- Generator: Sketch 41.2 (35397) - http://www.bohemiancoding.com/sketch -->
    <title>danger</title>
    <desc>Created with Sketch.</desc>
    <defs></defs>
    <g id="OrderCentre" stroke="none" stroke-width="1" fill="none" fill-rule="evenodd">
        <g id="1510-OrderCentre" transform="translate(-708.000000, -606.000000)" fill="#CF3455">
            <g id="content" transform="translate(110.000000, 108.000000)">
                <g id="order_list" transform="translate(0.000000, 199.000000)">
                    <g id="table" transform="translate(23.000000, 69.000000)">
                        <g id="text" transform="translate(4.000000, 0.000000)">
                            <g id="Group">
                                <g id="due_date" transform="translate(458.000000, 0.000000)">
                                    <g id="due_alert" transform="translate(113.000000, 110.000000)">
                                        <g id="Group-8">
                                            <g id="danger" transform="translate(0.000000, 120.000000)">
                                                <g id="Layer_1">
                                                    <path d="M11.4369268,8.73726268 L6.37464602,0.341917481 C6.24670867,0.129740241 6.01699835,0 5.7692141,0 C5.52142984,0 5.29171953,0.129717705 5.16378217,0.341917481 L0.101546478,8.73726268 C-0.0301093308,8.95561481 -0.0340080735,9.2279634 0.0913827034,9.44996637 C0.21677348,9.67199188 0.451982599,9.80928171 0.706955865,9.80928171 L10.8314949,9.80928171 C11.0864681,9.80928171 11.3216773,9.67196934 11.447068,9.44996637 C11.5724588,9.22794086 11.5685826,8.95561481 11.4369268,8.73726268 Z M5.77300016,2.90404498 C6.06373819,2.90404498 6.3097421,3.06806261 6.3097421,3.35877811 C6.3097421,4.24586602 6.20537749,5.5206422 6.20537749,6.40773011 C6.20537749,6.63883767 5.95191414,6.7357203 5.77300016,6.7357203 C5.53447824,6.7357203 5.33318593,6.63881513 5.33318593,6.40773011 C5.33318593,5.5206422 5.22884385,4.24586602 5.22884385,3.35877811 C5.22884385,3.06806261 5.46736578,2.90404498 5.77300016,2.90404498 Z M5.7804596,8.39813968 C5.45246942,8.39813968 5.20644298,8.12977998 5.20644298,7.82414559 C5.20644298,7.51105176 5.45244689,7.25015151 5.7804596,7.25015151 C6.08609399,7.25015151 6.34701678,7.51105176 6.34701678,7.82414559 C6.34701678,8.12977998 6.08609399,8.39813968 5.7804596,8.39813968 Z" id="Shape"></path>
                                                </g>
                                            </g>
                                        </g>
                                    </g>
                                </g>
                            </g>
                        </g>
                    </g>
                </g>
            </g>
        </g>
    </g>
</svg>