<?xml version="1.0" encoding="UTF-8"?>
<svg width="11px" height="11px" viewBox="0 0 11 11" version="1.1" xmlns="http://www.w3.org/2000/svg" xmlns:xlink="http://www.w3.org/1999/xlink">
    <!-- Generator: Sketch 41.2 (35397) - http://www.bohemiancoding.com/sketch -->
    <title>Shape</title>
    <desc>Created with Sketch.</desc>
    <defs></defs>
    <g id="Customers" stroke="none" stroke-width="1" fill="none" fill-rule="evenodd">
        <g id="1160-Customers" transform="translate(-748.000000, -178.000000)" stroke="#C73030">
            <g id="content" transform="translate(241.000000, 106.000000)">
                <g id="top_content" transform="translate(0.000000, 62.331551)">
                    <g id="add_button" transform="translate(488.000000, 0.000000)">
                        <g id="Group-6" transform="translate(20.000000, 8.042781)">
                            <path d="M8.99819626,3.47891018 C8.99819626,3.47936353 8.99909813,3.48027022 8.99909813,3.48072357 L8.99909813,9.79630219 C8.99909813,10.0465498 8.796628,10.2478359 8.54680963,10.2478359 C8.29699126,10.2478359 8.09452113,10.0465498 8.09452113,9.79630219 L8.09452113,4.55288949 L0.753288073,11.9333805 C0.581030639,12.1061057 0.301901445,12.1061057 0.129193076,11.9333805 C-0.0430643585,11.7602019 -0.0430643585,11.4791267 0.129193076,11.3059481 L7.47087707,3.92500374 L2.25535486,3.92500374 C2.0068893,3.92500374 1.80577198,3.72190423 1.80577198,3.47029659 C1.80577198,3.21959563 2.0068893,3.01604278 2.25535486,3.01604278 L8.55041712,3.01604278 C8.79888268,3.01604278 9,3.21959563 9,3.47029659 C9,3.47301667 8.99819626,3.47573675 8.99819626,3.47891018 L8.99819626,3.47891018 Z" id="Shape"></path>
                        </g>
                    </g>
                </g>
            </g>
        </g>
    </g>
</svg>