<?xml version="1.0" encoding="UTF-8"?>
<svg width="47px" height="48px" viewBox="0 0 47 48" version="1.1" xmlns="http://www.w3.org/2000/svg" xmlns:xlink="http://www.w3.org/1999/xlink">
    <!-- Generator: Sketch 41.2 (35397) - http://www.bohemiancoding.com/sketch -->
    <title>icon</title>
    <desc>Created with Sketch.</desc>
    <defs></defs>
    <g id="----" stroke="none" stroke-width="1" fill="none" fill-rule="evenodd">
        <g id="130Account_InSetup" transform="translate(-492.000000, -323.000000)" stroke-width="2">
            <g id="card_placeholder" transform="translate(266.000000, 122.000000)">
                <g id="body" transform="translate(55.000000, 42.000000)">
                    <g id="Group-2" transform="translate(0.000000, 160.000000)">
                        <g id="icon" transform="translate(172.000000, 0.000000)">
                            <g id="notify">
                                <g id="Group" stroke="#4D4E4C">
                                    <path d="M21.7830353,27.7792339 C27.1326351,27.7792339 30.6868038,20.6637115 31.2060471,18.8613834 C31.2435112,18.730421 32.0443192,18.3239326 32.1108056,18.2055206 C35.0063325,13.0814399 31.8413163,12.4990577 31.8413163,12.4990577 C31.8413163,12.4990577 31.9900933,9.7989663 31.3183327,7.2622175 C31.3183327,7.2622175 29.6211911,0.9662838 21.7830353,0.9662838 C13.9448795,0.9662838 12.2477389,7.2622175 12.2477389,7.2622175 C11.5759698,9.7989664 11.7247544,12.4990577 11.7247544,12.4990577 C11.7247544,12.4990577 8.5597306,13.0814399 11.4552594,18.2055206 C11.5217458,18.3239326 12.3225604,18.730421 12.3600159,18.8613834 C12.8792677,20.6637115 16.4334354,27.7792339 21.7830353,27.7792339 Z" id="Shape"></path>
                                    <path d="M26.693861,26.2495594 C26.693861,26.2495594 27.1491451,27.1348915 28.9979381,28.0935612" id="Shape"></path>
                                    <path d="M16.8722115,26.2495594 C16.8722115,26.2495594 14.8336306,28.269455 10.9519167,29.4945736 C5.4526744,31.2300339 0.7420731,34.4970818 0.3313723,43.1192856 C0.3313723,43.1192856 12.4530592,45.3508263 25.000001,45" id="Shape"></path>
                                </g>
                                <path d="M44.3041992,40.4487495 C44.3041992,44.7317886 40.832016,45.2954635 36.5494613,45.2954635 C32.2669066,45.2954635 28.7947215,44.7317886 28.7947215,40.4487495 C28.7947215,36.1657104 32.2669066,29.7859859 36.5494613,29.7859859 C40.832016,29.7859859 44.3041992,36.1657143 44.3041992,40.4487495 Z" id="Shape" stroke="#CF3455"></path>
                                <path d="M37,35 L37,38" id="Shape" stroke="#CF3455"></path>
                                <path d="M37,41 L37,42" id="Shape" stroke="#CF3455"></path>
                            </g>
                        </g>
                    </g>
                </g>
            </g>
        </g>
    </g>
</svg>