<?xml version="1.0" encoding="UTF-8"?>
<svg width="46px" height="45px" viewBox="0 0 46 45" version="1.1" xmlns="http://www.w3.org/2000/svg" xmlns:xlink="http://www.w3.org/1999/xlink">
    <!-- Generator: Sketch 41.2 (35397) - http://www.bohemiancoding.com/sketch -->
    <title>icon</title>
    <desc>Created with Sketch.</desc>
    <defs></defs>
    <g id="login&amp;subscribe" stroke="none" stroke-width="1" fill="none" fill-rule="evenodd">
        <g id="200Subscribe_Xero_Connect_Failed" transform="translate(-492.000000, -283.000000)">
            <g id="card_placeholder" transform="translate(266.000000, 112.000000)">
                <g id="Group-2" transform="translate(73.000000, 171.000000)">
                    <g id="icon" transform="translate(153.000000, 0.000000)">
                        <g id="Layer_1">
                            <g id="Group">
                                <path d="M18.8055556,0 L2.60185185,0 C1.16666667,0 0,1.16666667 0,2.60185185 L0,14.2407407 C0,15.6759259 1.16666667,16.8425926 2.60185185,16.8425926 L9.78703704,16.8425926 L9.78703704,19.2037037 L7.43518519,19.2037037 C6.92592593,19.2037037 6.51851852,19.6111111 6.51851852,20.1203704 C6.51851852,20.6296296 6.92592593,21.037037 7.43518519,21.037037 L13.9537037,21.037037 C14.462963,21.037037 14.8703704,20.6296296 14.8703704,20.1203704 C14.8703704,19.6111111 14.462963,19.2037037 13.9537037,19.2037037 L11.6111111,19.2037037 L11.6111111,16.8425926 L18.7962963,16.8425926 C20.2314815,16.8425926 21.3981481,15.6759259 21.3981481,14.2407407 L21.3981481,2.59259259 C21.3981481,1.16666667 20.2314815,0 18.8055556,0 Z M19.5648148,14.2314815 C19.5648148,14.6481481 19.2222222,15 18.7962963,15 L2.59259259,15 C2.16666667,15 1.82407407,14.6574074 1.82407407,14.2314815 L1.82407407,2.59259259 C1.82407407,2.17592593 2.16666667,1.82407407 2.59259259,1.82407407 L18.7962963,1.82407407 C19.2222222,1.82407407 19.5648148,2.16666667 19.5648148,2.59259259 L19.5648148,14.2314815 Z" id="Shape" fill="#4D4E4C"></path>
                                <path d="M42.7592593,23.9537037 L26.5555556,23.9537037 C25.1203704,23.9537037 23.9537037,25.1203704 23.9537037,26.5555556 L23.9537037,38.1944444 C23.9537037,39.6296296 25.1203704,40.7962963 26.5555556,40.7962963 L33.7407407,40.7962963 L33.7407407,43.1574074 L31.3981481,43.1574074 C30.8888889,43.1574074 30.4814815,43.5648148 30.4814815,44.0740741 C30.4814815,44.5833333 30.8888889,44.9907407 31.3981481,44.9907407 L37.9166667,44.9907407 C38.4259259,44.9907407 38.8333333,44.5833333 38.8333333,44.0740741 C38.8333333,43.5648148 38.4259259,43.1574074 37.9166667,43.1574074 L35.5740741,43.1574074 L35.5740741,40.7962963 L42.7592593,40.7962963 C44.1944444,40.7962963 45.3611111,39.6296296 45.3611111,38.1944444 L45.3611111,26.5462963 C45.3518519,25.1111111 44.1851852,23.9537037 42.7592593,23.9537037 Z M43.5185185,38.1851852 C43.5185185,38.6018519 43.1759259,38.9537037 42.75,38.9537037 L26.5462963,38.9537037 C26.1203704,38.9537037 25.7777778,38.6111111 25.7777778,38.1851852 L25.7777778,26.5462963 C25.7777778,26.1296296 26.1203704,25.7777778 26.5462963,25.7777778 L42.75,25.7777778 C43.1666667,25.7777778 43.5185185,26.1203704 43.5185185,26.5462963 L43.5185185,38.1851852 Z" id="Shape" fill="#4D4E4C"></path>
                                <path d="M34.6481481,7.5 L25.7777778,7.5 C25.2685185,7.5 24.8611111,7.90740741 24.8611111,8.41666667 C24.8611111,8.92592593 25.2685185,9.33333333 25.7777778,9.33333333 L33.7314815,9.33333333 L33.7314815,18.1018519 L32.3796296,16.75 C32.0185185,16.3888889 31.4444444,16.3888889 31.0833333,16.75 C30.7222222,17.1111111 30.7222222,17.6851852 31.0833333,18.0462963 L34,20.962963 C34.1759259,21.1388889 34.4166667,21.2314815 34.6481481,21.2314815 C34.8796296,21.2314815 35.1203704,21.1388889 35.2962963,20.962963 L38.212963,18.0462963 C38.5740741,17.6851852 38.5740741,17.1111111 38.212963,16.75 C37.8518519,16.3888889 37.2777778,16.3888889 36.9166667,16.75 L35.5648148,18.1018519 L35.5648148,8.41666667 C35.5648148,7.90740741 35.1574074,7.5 34.6481481,7.5 Z" id="Shape" fill="#CF3455"></path>
                                <path d="M19.5740741,36.1388889 L11.6203704,36.1388889 L11.6203704,27.3703704 L12.9722222,28.7222222 C13.1481481,28.8981481 13.3888889,28.9907407 13.6203704,28.9907407 C13.8518519,28.9907407 14.0925926,28.8981481 14.2685185,28.7222222 C14.6296296,28.3611111 14.6296296,27.787037 14.2685185,27.4259259 L11.3518519,24.5092593 C10.9907407,24.1481481 10.4166667,24.1481481 10.0555556,24.5092593 L7.13888889,27.4259259 C6.77777778,27.787037 6.77777778,28.3611111 7.13888889,28.7222222 C7.5,29.0833333 8.07407407,29.0833333 8.43518519,28.7222222 L9.78703704,27.3703704 L9.78703704,37.0555556 C9.78703704,37.5648148 10.1944444,37.9722222 10.7037037,37.9722222 L19.5740741,37.9722222 C20.0833333,37.9722222 20.4907407,37.5648148 20.4907407,37.0555556 C20.4907407,36.5462963 20.0740741,36.1388889 19.5740741,36.1388889 Z" id="Shape" fill="#CF3455"></path>
                            </g>
                        </g>
                    </g>
                </g>
            </g>
        </g>
    </g>
</svg>