<?xml version="1.0" encoding="UTF-8"?>
<svg width="42px" height="46px" viewBox="0 0 42 46" version="1.1" xmlns="http://www.w3.org/2000/svg" xmlns:xlink="http://www.w3.org/1999/xlink">
    <!-- Generator: Sketch 41.2 (35397) - http://www.bohemiancoding.com/sketch -->
    <title>Group</title>
    <desc>Created with Sketch.</desc>
    <defs></defs>
    <g id="----" stroke="none" stroke-width="1" fill="none" fill-rule="evenodd">
        <g id="10LoggedOut" transform="translate(-495.000000, -330.000000)" stroke-width="2">
            <g id="card_placeholder" transform="translate(266.000000, 124.000000)">
                <g id="info" transform="translate(55.000000, 207.000000)">
                    <g id="loggedout_icon" transform="translate(195.000000, 22.000000) scale(-1, 1) translate(-195.000000, -22.000000) translate(175.000000, 0.000000)">
                        <g id="door">
                            <g id="Group">
                                <path d="M19,38 L13,38 C11.8954906,38 11,37.1044998 11,36 L11,31.0088985 M11,14.0461829 L11,9 C11,7.8955002 11.8954906,7 13,7 L19,7" id="Shape" stroke="#4D4E4C"></path>
                                <path d="M15,22 L2,22" id="Line" stroke="#00A3DA" stroke-linecap="square"></path>
                                <path d="M1.14116026,22.0337016 L5.60745863,17.5674033" id="Line" stroke="#00A3DA" stroke-linecap="square"></path>
                                <path d="M1.02458567,22.0337016 L5.49088404,26.5" id="Line" stroke="#00A3DA" stroke-linecap="square"></path>
                                <path d="M24.9711895,0.6503999 C24.3520908,0.3066001 23.5966911,0.3164 22.9857903,0.6758001 C22.375,1.0352001 22,1.6903999 22,2.3994002 L22,41.6006026 C22,42.3096022 22.375,42.9648032 22.9857903,43.3242011 C23.5966912,43.6836028 24.3520909,43.6934028 24.9711895,43.3496032 L38.9711914,35.571302 C39.6063919,35.2187996 40,34.5498009 40,33.8232002 L40,10.1767998 C40,9.4502001 39.6063919,8.7812996 38.9711914,8.4287005 L24.9711895,0.6503999 Z" id="Shape" stroke="#4D4E4C"></path>
                                <ellipse id="Oval" stroke="#4D4E4C" cx="27.8334961" cy="21.6669998" rx="0.7222" ry="2"></ellipse>
                            </g>
                        </g>
                    </g>
                </g>
            </g>
        </g>
    </g>
</svg>