<?xml version="1.0" encoding="UTF-8"?>
<svg width="135px" height="68px" viewBox="0 0 135 68" version="1.1" xmlns="http://www.w3.org/2000/svg" xmlns:xlink="http://www.w3.org/1999/xlink">
    <!-- Generator: Sketch 41.2 (35397) - http://www.bohemiancoding.com/sketch -->
    <title>logo2</title>
    <desc>Created with Sketch.</desc>
    <defs></defs>
    <g id="----" stroke="none" stroke-width="1" fill="none" fill-rule="evenodd">
        <g id="10LoggedOut" transform="translate(-445.000000, -166.000000)">
            <g id="card_placeholder" transform="translate(266.000000, 124.000000)">
                <g id="logo2" transform="translate(179.000000, 42.000000)">
                    <g id="logo_cmyk">
                        <path d="M45.8992701,58.8293188 C45.7604936,58.8293188 45.6430673,58.9428123 45.6430673,59.0779719 L45.6430673,59.3156227 C45.6430673,59.4604306 45.7604936,59.5840801 45.8992701,59.5840801 C46.0489843,59.5840801 46.1663231,59.4604306 46.1663231,59.3156227 L46.1663231,59.0779719 C46.1663231,58.9428123 46.0489843,58.8293188 45.8992701,58.8293188" id="Fill-1" fill="#00A3DB"></path>
                        <path d="M45.8915148,58.8293188 L45.8915148,58.7023686 C45.7879101,58.7024532 45.6940635,58.7459548 45.6266908,58.8133231 C45.559318,58.8806067 45.5158737,58.9743806 45.5157888,59.0779719 L45.5157888,59.3156227 C45.5159585,59.4214992 45.5569422,59.5183199 45.6232118,59.5901737 C45.6892269,59.6618583 45.7843463,59.7109457 45.8915148,59.7110303 C46.0008894,59.7111996 46.0995726,59.6637202 46.1677938,59.5915278 C46.2363545,59.5193355 46.2776776,59.4214146 46.2777624,59.3156227 L46.2777624,59.0779719 C46.2777624,58.9743806 46.2338938,58.8795064 46.16423,58.8120536 C46.0946512,58.7442622 45.997665,58.702284 45.8915148,58.7023686 L45.8915148,58.956269 C45.9305468,58.9563536 45.9629604,58.9711645 45.9866342,58.9939309 C46.0101383,59.0169512 46.0232055,59.046319 46.0232055,59.0779719 L46.0232055,59.3156227 C46.0232904,59.3546388 46.0076776,59.3909465 45.9830704,59.4168444 C45.9581238,59.4426576 45.9273224,59.4569606 45.8915148,59.4571299 C45.8641075,59.4572145 45.8350031,59.4445195 45.810396,59.4181139 C45.7861282,59.3919621 45.770176,59.3545541 45.7703457,59.3156227 L45.7703457,59.0779719 C45.7702608,59.0464037 45.7837524,59.015851 45.806917,58.9926614 C45.8301666,58.9694718 45.8605437,58.9561844 45.8915148,58.956269 L45.8915148,58.8293188" id="Fill-2" fill="#00A3DB"></path>
                        <path d="M36.682071,61.1158613 C37.685704,61.1158613 38.5021527,61.9583875 38.5021527,62.9940473 C38.5021527,64.0307227 37.68511,64.8822201 36.6833438,64.8920376 C35.6900629,64.8820508 34.8820145,64.0305534 34.8820145,62.9940473 L34.8819296,62.9156767 C34.9210465,61.9065072 35.7118699,61.1158613 36.682071,61.1158613 Z M36.682071,60.3557681 C36.0068165,60.3557681 35.3558297,60.6363281 34.8820145,61.1195852 L34.8820145,60.7310329 C34.8820145,60.5241887 34.7088309,60.3557681 34.4959365,60.3557681 C34.292291,60.3557681 34.1202106,60.5276587 34.1202106,60.7310329 L34.1202106,67.416654 C34.1202106,67.6197744 34.292291,67.791411 34.4959365,67.791411 C34.7088309,67.791411 34.8820145,67.6232443 34.8820145,67.416654 L34.8820145,64.8717255 C35.3535387,65.3590451 36.0042709,65.6418055 36.682071,65.6418055 C38.1059774,65.6418055 39.2644657,64.4540593 39.2644657,62.9940473 C39.2644657,61.5393672 38.1059774,60.3557681 36.682071,60.3557681 L36.682071,60.3557681 Z" id="Fill-3" fill="#00A3DB"></path>
                        <path d="M43.6850157,60.3659241 C42.7149843,60.3659241 42.0702766,60.9576813 41.7091452,61.432729 L41.7091452,60.7416121 C41.7091452,60.534514 41.5452954,60.3659241 41.3438561,60.3659241 C41.1270585,60.3659241 40.957269,60.5309594 40.957269,60.7416121 L40.957269,65.2979397 C40.957269,65.5083385 41.1270585,65.6731199 41.3438561,65.6731199 C41.5452954,65.6731199 41.7091452,65.5047839 41.7091452,65.2979397 L41.7091452,63.0763957 L41.70923,63.0676784 C41.70923,63.0675938 41.7102483,63.0631082 41.7161879,63.0515134 L41.7228064,63.0359409 C41.8100346,62.7872031 42.0030735,62.3079238 42.3144815,61.8938122 C42.725506,61.3630757 43.1609679,61.1158613 43.6850157,61.1158613 C43.8889158,61.1158613 44.0612508,60.9443939 44.0612508,60.7416121 C44.0612508,60.5309594 43.8959585,60.3659241 43.6850157,60.3659241" id="Fill-4" fill="#00A3DB"></path>
                        <path d="M45.8915148,60.3557681 C45.6808265,60.3557681 45.5157888,60.5206341 45.5157888,60.7310329 L45.5157888,65.2979397 C45.5157888,65.5013139 45.6878693,65.6731199 45.8915148,65.6731199 C46.104494,65.6731199 46.2777624,65.5047839 46.2777624,65.2979397 L46.2777624,60.7310329 C46.2777624,60.5171641 46.1117065,60.3557681 45.8915148,60.3557681" id="Fill-5" fill="#00A3DB"></path>
                        <path d="M50.6050597,60.3659241 C50.0666719,60.3659241 49.554164,60.5627816 49.1577341,60.914349 L49.1577341,60.7416121 C49.1577341,60.534514 48.9936298,60.3659241 48.7919359,60.3659241 C48.5813325,60.3659241 48.4162948,60.5309594 48.4162948,60.7416121 L48.4162948,65.4129566 L48.4323319,65.4288677 C48.4375079,65.4485026 48.4459931,65.4663603 48.4578724,65.4824407 C48.5068322,65.5706287 48.5943149,65.6395204 48.6949497,65.6682958 L48.7121747,65.6731199 L48.7919359,65.6731199 C48.9080138,65.6731199 49.0137398,65.6213242 49.0772942,65.5338132 C49.1269327,65.4792246 49.1425456,65.4164266 49.1540855,65.3697935 L49.1577341,65.354898 L49.1577341,62.5525991 C49.1766562,61.7603452 49.8259459,61.1158613 50.6050597,61.1158613 C51.3974953,61.1158613 52.042203,61.7589911 52.042203,62.5495523 L52.042203,65.2979397 C52.042203,65.5083385 52.2073256,65.6731199 52.4180987,65.6731199 C52.6287869,65.6731199 52.7938246,65.5083385 52.7938246,65.2979397 L52.7938246,62.5495523 C52.7938246,61.3455566 51.8119139,60.3659241 50.6050597,60.3659241" id="Fill-6" fill="#00A3DB"></path>
                        <path d="M56.4166782,60.3557681 L55.8913576,60.3557681 L55.8913576,58.6023318 C55.8913576,58.4096214 55.6986581,58.2274902 55.4949277,58.2274902 C55.3014645,58.2274902 55.1186078,58.4096214 55.1186078,58.6023318 L55.1186078,60.3557681 L54.6139912,60.3557681 C54.2382652,60.3557681 54.2382652,60.6091607 54.2382652,60.7310329 C54.2382652,60.8525666 54.2382652,61.1057053 54.6139912,61.1057053 L55.1186078,61.1057053 L55.1186078,64.6677589 C55.1186078,65.2408967 55.5562759,65.6731199 56.1367505,65.6731199 C56.3353897,65.6731199 56.5232527,65.4908194 56.5232527,65.2979397 C56.5232527,65.1037059 56.331741,64.9131113 56.1367505,64.9131113 C56.0775236,64.9131113 55.8913576,64.8393109 55.8913576,64.6677589 L55.8913576,61.1057053 L56.4166782,61.1057053 C56.6099717,61.1057053 56.7926587,60.9235741 56.7926587,60.7310329 C56.7926587,60.5381532 56.6099717,60.3557681 56.4166782,60.3557681" id="Fill-7" fill="#00A3DB"></path>
                        <path d="M65.0433564,62.9808445 L65.0356348,62.976105 C64.6430233,62.7568197 64.22555,62.6166667 63.7593715,62.5476904 L63.729758,62.5462516 C63.3163576,62.4816763 62.9811062,62.3689445 62.7593023,62.2199896 C62.5858642,62.0817831 62.5212916,61.9720135 62.5212916,61.8162033 C62.5212916,61.6469363 62.6182778,61.4766538 62.7954494,61.3360776 C63.0033375,61.167657 63.3169516,61.0748987 63.6784224,61.0748987 C64.1236424,61.0748987 64.4622879,61.3006162 64.820704,61.5396211 L64.852863,61.5610334 C64.9134475,61.5997955 64.9836204,61.6201922 65.0559994,61.6201922 C65.18489,61.6201922 65.3025801,61.5567171 65.3710559,61.4499943 C65.4800911,61.2787807 65.4338466,61.049424 65.2589661,60.9233202 L65.2402137,60.9115561 C64.8470082,60.6639186 64.357665,60.3557681 63.6784224,60.3557681 C63.1642175,60.3557681 62.7094092,60.4815334 62.3595632,60.7220618 C61.9778975,61.0044837 61.7589786,61.4033612 61.7589786,61.8162033 C61.7589786,62.2303995 61.9859585,62.6094728 62.3663514,62.8314664 C62.6854808,63.0573532 63.1210277,63.1618755 63.5462225,63.2399922 L63.5679447,63.2501482 L63.585,63.2530257 C64.0639912,63.3331736 64.4075581,63.450391 64.6015305,63.5978225 C64.8583784,63.8125376 64.9111565,63.9487975 64.9185387,64.1198418 C64.9185387,64.308659 64.7994909,64.4962068 64.592027,64.6343286 L64.5819296,64.6417764 C64.3631804,64.8206069 64.0415053,64.9231827 63.6993809,64.9231827 C63.2289598,64.9231827 62.7313859,64.7332652 62.225836,64.3625706 C62.1554085,64.3051891 62.0714048,64.2748903 61.9829887,64.2748903 C61.8697109,64.2748903 61.7641546,64.3253318 61.6937272,64.4131814 C61.5682307,64.5692455 61.5874073,64.7812523 61.7448931,64.9222517 C62.3588843,65.4117717 63.0158957,65.6644026 63.6977687,65.6731199 L63.6993809,65.6731199 C64.2009428,65.6731199 64.6515085,65.5291583 65.0400471,65.2441974 C65.452599,64.9323231 65.6705845,64.5435169 65.6705845,64.1198418 C65.6705845,63.6710305 65.4302828,63.2345756 65.0433564,62.9808445" id="Fill-8" fill="#00A3DB"></path>
                        <path d="M72.929274,60.3659241 C72.2040415,60.3659241 71.5235261,60.7295941 71.1074953,61.327445 C70.7002891,60.7295095 70.0229133,60.3659241 69.2935229,60.3659241 C68.756917,60.3659241 68.2481427,60.559227 67.8563796,60.9045315 L67.8563796,60.7310329 C67.8563796,60.5229192 67.6946512,60.3659241 67.4802294,60.3659241 C67.2821842,60.3659241 67.1148554,60.5331599 67.1148554,60.7310329 L67.1148554,65.3806266 L67.1213891,65.4001769 C67.1704337,65.5473545 67.2965242,65.656701 67.4350031,65.6723582 L67.5117096,65.6731199 C67.5330075,65.6731199 67.5674576,65.6731199 67.6030107,65.6549237 C67.6385638,65.6441752 67.6696197,65.6242864 67.690154,65.6075289 C67.7945223,65.5426151 67.8563796,65.4319145 67.8563796,65.3086035 L67.8563796,62.5495523 C67.8563796,61.7534053 68.5010874,61.1057053 69.2935229,61.1057053 C70.0858737,61.1057053 70.7304117,61.7534053 70.7304117,62.5495523 L70.7304117,65.412618 L70.7405091,65.4226894 L70.7405091,65.441732 L70.7545097,65.4562043 L70.7552734,65.4659371 L70.7614676,65.4725385 L70.7614676,65.5596264 L70.8360528,65.5596264 L70.8485261,65.571729 C70.8597266,65.5834084 70.8840792,65.6086292 70.9209051,65.6222552 L70.9209899,65.6223398 C70.9354148,65.6320726 70.9561188,65.6460372 70.9831867,65.6547544 C71.001939,65.6648258 71.0260371,65.6731199 71.0542929,65.6731199 L71.1061376,65.6731199 C71.1672313,65.6731199 71.228325,65.6581397 71.2878064,65.6283488 L71.296631,65.6235247 C71.3310811,65.6027048 71.4357888,65.5394836 71.4754148,65.4216738 L71.4820333,65.4019542 L71.4820333,65.3934909 C71.4882275,65.3778337 71.4926398,65.3597221 71.4926398,65.3394101 L71.4926398,62.5495523 C71.4926398,61.7534053 72.137093,61.1057053 72.929274,61.1057053 C73.7215399,61.1057053 74.3575079,61.741218 74.3770239,62.5495523 L74.3770239,65.3086035 C74.3770239,65.509608 74.5409585,65.6731199 74.7423979,65.6731199 C74.949692,65.6731199 75.1182935,65.509608 75.1182935,65.3086035 L75.1182935,62.5495523 C75.1182935,61.3455566 74.1362979,60.3659241 72.929274,60.3659241" id="Fill-9" fill="#00A3DB"></path>
                        <path d="M78.9485261,64.9231827 C77.9676336,64.9231827 77.1695977,64.0666919 77.1695977,63.0139362 C77.1695977,61.9559332 77.9676336,61.0952107 78.9485261,61.0952107 C79.9294186,61.0952107 80.7274544,61.9559332 80.7274544,63.0139362 C80.7274544,64.0666919 79.9294186,64.9231827 78.9485261,64.9231827 Z M81.1035198,60.3557681 C80.8926618,60.3557681 80.7274544,60.5206341 80.7274544,60.7310329 L80.7274544,61.1255095 C80.257797,60.6383593 79.6147014,60.3557681 78.9485261,60.3557681 C77.5531301,60.3557681 76.4178064,61.5481691 76.4178064,63.0139362 C76.4178064,64.4802111 77.5531301,65.6731199 78.9485261,65.6731199 C79.6118165,65.6731199 80.2549969,65.3869741 80.7274544,64.8937302 L80.7274544,65.2979397 C80.7274544,65.5013139 80.8996197,65.6731199 81.1035198,65.6731199 C81.3072502,65.6731199 81.4793306,65.5013139 81.4793306,65.2979397 L81.4793306,60.7310329 C81.4793306,60.5206341 81.314208,60.3557681 81.1035198,60.3557681 L81.1035198,60.3557681 Z" id="Fill-10" fill="#00A3DB"></path>
                        <path d="M86.1072596,60.3659241 C85.1365493,60.3659241 84.492181,60.9575121 84.1311345,61.4325598 L84.1311345,60.7416121 C84.1311345,60.534514 83.9672847,60.3659241 83.7658454,60.3659241 C83.5491326,60.3659241 83.3793432,60.5309594 83.3793432,60.7416121 L83.3793432,65.2979397 C83.3793432,65.5083385 83.5491326,65.6731199 83.7658454,65.6731199 C83.9672847,65.6731199 84.1311345,65.5047839 84.1311345,65.2979397 L84.1311345,63.0763957 L84.1312194,63.0678477 C84.1312194,63.0678477 84.1323224,63.0632775 84.1380924,63.051852 L84.1449654,63.0358563 C84.231939,62.7872877 84.4246386,62.308093 84.7367253,61.8938122 C85.1475801,61.3630757 85.5828724,61.1158613 86.1072596,61.1158613 C86.3109051,61.1158613 86.4823067,60.9443939 86.4823067,60.7416121 C86.4823067,60.5309594 86.3176933,60.3659241 86.1072596,60.3659241" id="Fill-11" fill="#00A3DB"></path>
                        <path d="M89.5768699,60.3557681 L89.0516342,60.3557681 L89.0516342,58.6023318 C89.0516342,58.4096214 88.8590195,58.2274902 88.655374,58.2274902 C88.4619107,58.2274902 88.2794783,58.4096214 88.2794783,58.6023318 L88.2794783,60.3557681 L87.7746072,60.3557681 C87.3987115,60.3557681 87.3987115,60.6091607 87.3987115,60.7310329 C87.3987115,60.8525666 87.3987115,61.1057053 87.7746072,61.1057053 L88.2794783,61.1057053 L88.2794783,64.6677589 C88.2794783,65.2408967 88.7173162,65.6731199 89.2977058,65.6731199 C89.4962602,65.6731199 89.6837838,65.4908194 89.6837838,65.2979397 C89.6837838,65.1037059 89.4928661,64.9131113 89.2977058,64.9131113 C89.2383092,64.9131113 89.0516342,64.8393109 89.0516342,64.6677589 L89.0516342,61.1057053 L89.5768699,61.1057053 C89.7703331,61.1057053 89.9527656,60.9235741 89.9527656,60.7310329 C89.9527656,60.5381532 89.7703331,60.3557681 89.5768699,60.3557681" id="Fill-12" fill="#00A3DB"></path>
                        <path d="M93.8873664,61.1057053 C94.7138278,61.1057053 95.4265871,61.6812975 95.6353237,62.4947098 L92.1097109,62.4947098 C92.335418,61.6694488 93.0464802,61.1057053 93.8873664,61.1057053 Z M93.8873664,60.3557681 C92.4576053,60.3557681 91.2942803,61.5531625 91.2942803,63.0247693 C91.2942803,64.4851198 92.4576053,65.6731199 93.8873664,65.6731199 C94.7638906,65.6731199 95.570836,65.2221927 96.0485544,64.4630305 C96.1503771,64.2865697 96.1011628,64.0685539 95.9297612,63.9445658 L95.9195789,63.9380491 C95.8635764,63.9046188 95.7982401,63.8870151 95.7303583,63.8870151 C95.5979887,63.8870151 95.480044,63.9537909 95.4147077,64.0646607 C95.0965116,64.5942124 94.5110308,64.9231827 93.8873664,64.9231827 C92.945506,64.9231827 92.1648649,64.1915263 92.0562539,63.2340678 L96.0833438,63.2340678 C96.2937775,63.2340678 96.4592395,63.0785115 96.4592395,62.880046 L96.4583909,62.828335 C96.348083,61.4187645 95.2424576,60.3557681 93.8873664,60.3557681 L93.8873664,60.3557681 Z" id="Fill-13" fill="#00A3DB"></path>
                        <path d="M100.475299,60.3659241 C99.5054368,60.3659241 98.8614079,60.9573428 98.4999371,61.4323059 L98.4999371,60.7416121 C98.4999371,60.534514 98.3361722,60.3659241 98.1342238,60.3659241 C97.9178504,60.3659241 97.7481458,60.5309594 97.7481458,60.7416121 L97.7481458,65.2979397 C97.7481458,65.5083385 97.9178504,65.6731199 98.1342238,65.6731199 C98.3361722,65.6731199 98.4999371,65.5047839 98.4999371,65.2979397 L98.4999371,63.0679323 C98.4999371,63.0679323 98.5007857,63.0633621 98.5067253,63.0519366 L98.5135135,63.0357716 C98.6000629,62.7879648 98.791829,62.3097857 99.104934,61.8938122 C99.5164676,61.3630757 99.9517599,61.1158613 100.475299,61.1158613 C100.678944,61.1158613 100.851194,60.9443939 100.851194,60.7416121 C100.851194,60.5309594 100.686581,60.3659241 100.475299,60.3659241" id="Fill-14" fill="#00A3DB"></path>
                        <path d="M3.41063796,31.0703863 C3.44729415,32.497222 3.74156191,33.8144574 4.29064111,35.0216692 C4.84090823,36.2287964 5.55655248,37.2710577 6.43621622,38.1485375 C7.31647392,39.0275407 8.34301697,39.7126487 9.51745757,40.2065696 C10.6908799,40.7011676 11.9376147,40.9476203 13.2585104,40.9476203 C14.615044,40.9476203 15.8986895,40.6923658 17.1091923,40.179233 C18.3199497,39.6683007 19.3732212,38.9633039 20.2726556,38.0666969 C21.1706474,37.1706824 21.8763639,36.1187729 22.3906537,34.9116457 C22.9038404,33.7044339 23.160858,32.4241833 23.160858,31.0703863 C23.160858,29.7179434 22.9038404,28.4455638 22.3906537,27.2573099 C21.8763639,26.0689713 21.1706474,25.0268794 20.2726556,24.1285797 C19.3732212,23.2338346 18.3199497,22.529261 17.1091923,22.0164668 C15.8986895,21.5046882 14.615044,21.2480795 13.2585104,21.2480795 C11.9376147,21.2480795 10.6908799,21.4953785 9.51745757,21.9892148 C8.34301697,22.4833896 7.31647392,23.1507246 6.43621622,23.9921505 C5.55655248,24.8336611 4.84090823,25.8304742 4.29064111,26.9826743 C3.74156191,28.1347897 3.44729415,29.3702691 3.41063796,30.6865735 L3.41063796,31.0703863 Z M0,19.4384466 C0,18.9626372 0.165207417,18.5591048 0.495113136,18.2312347 C0.825103708,17.9014181 1.22849151,17.7364675 1.70570082,17.7364675 C2.18129793,17.7364675 2.58595852,17.9014181 2.91552483,18.2312347 C3.24602451,18.5591048 3.41063796,18.9626372 3.41063796,19.4384466 L3.41063796,22.1815867 C4.62114079,20.8282128 6.06956945,19.7772344 7.75711188,19.0260277 C9.44346637,18.2765136 11.2782275,17.9014181 13.2585104,17.9014181 C15.1286549,17.9014181 16.8700786,18.2492617 18.4845632,18.9446949 C20.097775,19.6391125 21.5011471,20.5906467 22.6933218,21.7977739 C23.8842238,23.0041394 24.8289692,24.4037231 25.5261157,25.9950016 C26.2230924,27.5861109 26.5711565,29.2782726 26.5711565,31.0703863 C26.5711565,32.9007544 26.2140132,34.6198295 25.4987932,36.2287964 C24.7837429,37.8383558 23.8209239,39.2466568 22.6105908,40.4538686 C21.4007668,41.6602341 19.9973947,42.621755 18.4024261,43.3352152 C16.8071182,44.047829 15.1286549,44.4043052 13.3685638,44.4043052 C11.3138655,44.3320282 9.44346637,43.8105168 7.75711188,42.8405325 C6.06956945,41.8718178 4.62114079,40.7275733 3.41063796,39.4112689 L3.41063796,52.635926 C3.41063796,53.109958 3.24602451,53.5135751 2.91552483,53.8422068 C2.58595852,54.172362 2.18129793,54.3360431 1.70570082,54.3360431 C1.22849151,54.3360431 0.825103708,54.172362 0.495113136,53.8422068 C0.165207417,53.5135751 0,53.109958 0,52.635926 L0,19.4384466 L0,19.4384466 Z" id="Fill-15" fill="#4D4D4C"></path>
                        <path d="M33.265748,19.4384466 C33.265748,18.9626372 33.4310402,18.5591048 33.7606065,18.2312347 C34.0911062,17.9014181 34.4941546,17.7364675 34.9714488,17.7364675 C35.4470459,17.7364675 35.8514519,17.9014181 36.1812728,18.2312347 C36.5117725,18.5591048 36.6761314,18.9626372 36.6761314,19.4384466 L36.6761314,22.1264903 C37.8498083,20.8462397 39.2620899,19.7944996 40.9127216,18.9709313 C42.5631835,18.1478708 44.3597612,17.7364675 46.3038121,17.7364675 C46.8904808,17.7364675 47.358017,17.9014181 47.7071842,18.2312347 C48.0546543,18.5591048 48.2298743,18.9626372 48.2298743,19.4384466 C48.2298743,19.9137482 48.0546543,20.316011 47.7071842,20.6455738 C47.358017,20.9734439 46.8904808,21.138056 46.3038121,21.138056 C44.9838498,21.138056 43.7545097,21.3951724 42.6183375,21.9073742 C41.4808077,22.4192375 40.4809931,23.1145861 39.6201666,23.9921505 C38.7581521,24.8705613 38.0603268,25.8766841 37.5297454,27.0108572 C36.9973821,28.1440994 36.7127876,29.3333689 36.6761314,30.5766347 L36.6761314,42.7031724 C36.6761314,43.1798281 36.5117725,43.5816679 36.1812728,43.9113999 C35.8514519,44.2391853 35.4470459,44.4043052 34.9714488,44.4043052 C34.4941546,44.4043052 34.0911062,44.2391853 33.7606065,43.9113999 C33.4310402,43.5816679 33.265748,43.1798281 33.265748,42.7031724 L33.265748,19.4384466" id="Fill-16" fill="#4D4D4C"></path>
                        <path d="M54.9243809,19.4384466 C54.9243809,18.9626372 55.0896732,18.5591048 55.4192395,18.2312347 C55.7495695,17.9014181 56.1527876,17.7364675 56.6299969,17.7364675 C57.1056788,17.7364675 57.5100849,17.9014181 57.8399057,18.2312347 C58.1704054,18.5591048 58.3347643,18.9626372 58.3347643,19.4384466 L58.3347643,42.7031724 C58.3347643,43.1798281 58.1704054,43.5816679 57.8399057,43.9113999 C57.5100849,44.2391853 57.1056788,44.4043052 56.6299969,44.4043052 C56.1527876,44.4043052 55.7495695,44.2391853 55.4192395,43.9113999 C55.0896732,43.5816679 54.9243809,43.1798281 54.9243809,42.7031724 L54.9243809,19.4384466" id="Fill-17" fill="#4D4D4C"></path>
                        <path d="M65.0293558,19.4384466 C65.0293558,18.9626372 65.1945632,18.5591048 65.5241295,18.2312347 C65.8540352,17.9014181 66.2577624,17.7364675 66.7348869,17.7364675 C67.2105688,17.7364675 67.6152294,17.9014181 67.9447957,18.2312347 C68.2752954,18.5591048 68.4399089,18.9626372 68.4399089,19.4384466 L68.4399089,42.7031724 C68.4399089,43.1798281 68.2752954,43.5816679 67.9447957,43.9113999 C67.6152294,44.2391853 67.2105688,44.4043052 66.7348869,44.4043052 C66.2577624,44.4043052 65.8540352,44.2391853 65.5241295,43.9113999 C65.1945632,43.5816679 65.0293558,43.1798281 65.0293558,42.7031724 L65.0293558,19.4384466" id="Fill-18" fill="#4D4D4C"></path>
                        <path d="M98.2954431,30.8511856 C98.2207731,29.5353044 97.9178504,28.2994865 97.386675,27.1472864 C96.8554997,25.9950016 96.1401948,24.9890482 95.2416091,24.1285797 C94.3421747,23.2698885 93.3069767,22.5926514 92.1334695,22.0988151 C90.9599623,21.6054866 89.7134821,21.3581876 88.3923319,21.3581876 C87.0346952,21.3581876 85.7602137,21.614627 84.5688875,22.1264903 C83.3770522,22.6388613 82.3317568,23.3438581 81.4330013,24.2386032 C80.5334821,25.1364797 79.8286141,26.187035 79.3150031,27.3945854 C78.8011376,28.6009509 78.5450534,29.8820477 78.5450534,31.2349138 C78.5450534,32.5892186 78.8011376,33.8597363 79.3150031,35.0498522 C79.8286141,36.2381061 80.5334821,37.2801981 81.4330013,38.1768051 C82.3317568,39.0732428 83.3770522,39.7778165 84.5688875,40.2888334 C85.7602137,40.8023893 87.0346952,41.0572207 88.3923319,41.0572207 C89.7134821,41.0572207 90.9599623,40.810768 92.1334695,40.3165085 C93.3069767,39.8226722 94.3421747,39.1564375 95.2416091,38.3131496 C96.1401948,37.4721468 96.8554997,36.4845588 97.386675,35.3513166 C97.9178504,34.2179898 98.2207731,32.99182 98.2954431,31.673823 L98.2954431,30.8511856 Z M98.2954431,20.0409523 C98.2954431,19.5669202 98.4600566,19.1633878 98.790132,18.8345868 C99.1202074,18.5040084 99.5241043,18.3408351 100.000126,18.3408351 C100.476147,18.3408351 100.880893,18.5040084 101.210968,18.8345868 C101.540195,19.1633878 101.705657,19.5669202 101.705657,20.0409523 L101.705657,41.2222559 C101.705657,43.0148775 101.356914,44.7061082 100.660277,46.2971328 C99.9636392,47.8889191 99.0183847,49.2875719 97.8270585,50.4957147 C96.6348837,51.7030112 95.2322753,52.6536143 93.6192332,53.348963 C92.004494,54.0426189 90.263325,54.3911395 88.3923319,54.3911395 C86.5221873,54.3911395 84.7974796,54.0623385 83.2213482,53.4039747 C81.6438592,52.7442568 80.2499906,51.830977 79.0400817,50.6603268 L78.9849277,50.6057382 C78.6551069,50.2752445 78.4898994,49.8919395 78.4898994,49.4526918 C78.4898994,48.9768824 78.6635072,48.5654791 79.0125047,48.2177202 C79.3601446,47.8700459 79.7734601,47.6966319 80.2499906,47.6966319 C80.7263514,47.6966319 81.1115808,47.8427939 81.405594,48.1363028 C82.3222533,49.0491594 83.367379,49.7633813 84.5413105,50.2752445 C85.7143935,50.7882926 86.9982087,51.0444781 88.3923319,51.0444781 C89.7491201,51.0444781 91.0329353,50.7882926 92.2437775,50.2752445 C93.4529227,49.7633813 94.5076367,49.0592308 95.4062225,48.1636394 C96.3048083,47.2666092 97.0107794,46.2236709 97.5241358,45.0358402 C98.0374921,43.8475016 98.2954431,42.5752066 98.2954431,41.2222559 L98.2954431,40.0150441 C97.0846009,41.3689257 95.6268385,42.4386928 93.9213074,43.2243453 C92.2166248,44.0116905 90.3727844,44.4043052 88.3923319,44.4043052 C86.5578253,44.4043052 84.8439786,44.0759273 83.2485009,43.4166326 C81.6533627,42.7582688 80.2499906,41.8454122 79.0400817,40.6725615 C77.8297486,39.5032655 76.8760088,38.1134146 76.1791169,36.5034321 C75.4823099,34.8944651 75.1344155,33.137982 75.1344155,31.2349138 C75.1344155,29.4064076 75.472467,27.6961344 76.1519642,26.1051098 C76.8294249,24.5132388 77.7655154,23.1243189 78.9573507,21.9352186 C80.1486769,20.7459491 81.5613828,19.7944996 83.1937712,19.0810394 C84.8249717,18.3676639 86.5951603,17.9750492 88.5026398,17.9014181 C90.4092709,17.9385722 92.2064425,18.358862 93.8933061,19.1633878 C95.5810182,19.9687599 97.0472659,21.0659482 98.2954431,22.4562223 L98.2954431,20.0409523 L98.2954431,20.0409523 Z" id="Fill-19" fill="#4D4D4C"></path>
                        <path d="M121.658674,21.3031759 C120.301037,21.3031759 119.026556,21.5596999 117.835229,22.0715632 C116.643055,22.5842727 115.597674,23.2888464 114.699089,24.1835914 C113.800503,25.0813833 113.094532,26.131854 112.581175,27.3390658 C112.06697,28.5459391 111.811565,29.8271206 111.811565,31.1804945 C111.811565,32.5342069 112.06697,33.8048092 112.581175,34.9947558 C113.094532,36.1830944 113.800503,37.2256941 114.699089,38.1217087 C115.597674,39.018231 116.643055,39.7228047 117.835229,40.233737 C119.026556,40.7474621 120.301037,41.0022935 121.658674,41.0022935 C123.014613,41.0022935 124.299277,40.7474621 125.509271,40.233737 C126.719265,39.7228047 127.773979,39.018231 128.672564,38.1217087 C129.57115,37.2256941 130.276273,36.1830944 130.791326,34.9947558 C131.303834,33.8048092 131.560937,32.5342069 131.560937,31.1804945 C131.560937,29.8271206 131.303834,28.5459391 130.791326,27.3390658 C130.276273,26.131854 129.57115,25.0813833 128.672564,24.1835914 C127.773979,23.2888464 126.719265,22.5842727 125.509271,22.0715632 C124.299277,21.5596999 123.014613,21.3031759 121.658674,21.3031759 Z M121.768133,17.846491 C123.529667,17.846491 125.207197,18.2026286 126.80242,18.9168505 C128.397643,19.6298029 129.800251,20.5906467 131.011094,21.7977739 C132.221936,23.0041394 133.184161,24.4129482 133.900314,26.0219997 C134.614771,27.6326593 134.971999,29.3513112 134.971999,31.1804945 C134.971999,32.9729468 134.622407,34.665193 133.926618,36.2560484 C133.229981,37.8471577 132.284727,39.2466568 131.0934,40.4538686 C129.901226,41.6602341 128.497769,42.6130378 126.884727,43.3070322 C125.270836,44.0028886 123.529667,44.3492088 121.658674,44.3492088 C119.825016,44.3492088 118.110999,44.0209156 116.514928,43.3616208 C114.919705,42.7031724 113.517096,41.7904004 112.306254,40.6193271 C111.095412,39.4482537 110.141672,38.0583182 109.445883,36.4484203 C108.748397,34.8393687 108.400503,33.0828857 108.400503,31.1804945 C108.400503,29.3513112 108.739063,27.641038 109.41873,26.050098 C110.0967,24.4582271 111.031772,23.0693072 112.223947,21.8800376 C113.415273,20.6908527 114.827216,19.7393186 116.459774,19.0260277 C118.091483,18.3126521 119.860654,17.9200375 121.768133,17.846491 L121.768133,17.846491 Z" id="Fill-20" fill="#4D4D4C"></path>
                        <path d="M69.5129015,6.58880043 L69.5202025,6.58880043 C69.5778055,6.01906008 70.0575684,5.5744856 70.6410458,5.5744856 C71.2248406,5.5744856 71.7043257,6.01906008 71.7618928,6.58880043 L71.7666975,6.58880043 C71.7050895,2.99932703 68.7731097,0.09828824 65.1788861,0.09828824 C65.0767538,0.09828824 64.9777955,0.111913384 64.8837209,0.13744882 L64.8837209,2.31789573 C64.9777955,2.34343117 65.0767538,2.35705631 65.1788861,2.35705631 C67.5311543,2.35705631 69.4517202,4.24489696 69.5129015,6.58880043 Z" id="Combined-Shape" fill="#D8117D"></path>
                        <path d="M65.1747926,13.2457308 C64.5508737,13.2457308 64.045154,12.7417385 64.045154,12.1190054 C64.045154,11.4971186 64.5508737,10.99228 65.1747926,10.99228 C67.5716153,10.99228 69.5216908,9.04748742 69.5216908,6.65684574 C69.5216908,7.27907102 70.0275801,7.78348652 70.6510748,7.78348652 C71.2747392,7.78348652 71.7806285,7.27907102 71.7806285,6.65684574 C71.7806285,10.2894836 68.8170773,13.2457308 65.1747926,13.2457308" id="Fill-23" fill="#35A1CF"></path>
                        <path d="M70.6510748,7.78348652 C70.0275801,7.78348652 69.5216908,7.27907102 69.5216908,6.65684574 C69.5216908,6.03453582 70.0275801,5.53020496 70.6510748,5.53020496 C71.2747392,5.53020496 71.7806285,6.03453582 71.7806285,6.65684574 C71.7806285,7.27907102 71.2747392,7.78348652 70.6510748,7.78348652" id="Fill-24" fill="#602A7A"></path>
                        <path d="M59.6983407,7.78348652 C59.0746763,7.78348652 58.5689566,7.27907102 58.5689566,6.65684574 C58.5689566,3.02420785 61.5323382,0.0680453115 65.1747926,0.0680453115 C64.5508737,0.0680453115 64.045154,0.572037637 64.045154,1.19468609 C64.045154,1.81699601 64.5508737,2.32132687 65.1747926,2.32132687 C62.7778001,2.32132687 60.8277247,4.26611942 60.8277247,6.65684574 C60.8277247,7.27907102 60.322005,7.78348652 59.6983407,7.78348652" id="Fill-25" fill="#35A1CF"></path>
                        <path d="M65.1747926,2.32132687 L65.1747926,2.32132687 C64.5508737,2.32132687 64.045154,1.81699601 64.045154,1.19468609 C64.045154,0.572037637 64.5508737,0.0680453115 65.1747926,0.0680453115 C65.7982872,0.0680453115 66.3041766,0.572037637 66.3041766,1.19468609 C66.3041766,1.81699601 65.7982872,2.32132687 65.1747926,2.32132687" id="Fill-26" fill="#602A7A"></path>
                        <path d="M57.6699466,13.2457308 C54.0455657,13.2465771 51.0865965,10.3168202 51.0640258,6.69687737 C51.042049,3.06517045 53.9872722,0.0904731815 57.6298114,0.0680453115 L57.6366845,0.0680453115 C58.2572093,0.0680453115 58.7625047,0.56797523 58.7658988,1.18766151 C58.7699717,1.80954826 58.2675613,2.31743373 57.6436424,2.32132687 C55.2466499,2.33630699 53.3087084,4.29303287 53.3229635,6.68325138 C53.3380673,9.06509118 55.2850031,10.9923646 57.6701163,10.9923646 L57.6964205,10.9923646 C58.857709,10.9857632 59.9463639,10.5279807 60.7623884,9.70373536 C61.5784129,8.88025168 62.0238026,7.78839526 62.0165902,6.63044009 C62.0130264,6.00813017 62.5154368,5.50066788 63.1392709,5.4971979 L63.1461439,5.4971979 C63.7670082,5.4971979 64.2717945,5.99670466 64.2757825,6.61681411 C64.2863891,8.37727496 63.6095223,10.03516 62.369406,11.2876508 C61.1292898,12.5397184 59.4748397,13.2351516 57.710506,13.2457308 L57.6699466,13.2457308" id="Fill-27" fill="#34A2CF"></path>
                    </g>
                </g>
            </g>
        </g>
    </g>
</svg>