<?xml version="1.0" encoding="UTF-8"?>
<svg width="44px" height="35px" viewBox="0 0 44 35" version="1.1" xmlns="http://www.w3.org/2000/svg" xmlns:xlink="http://www.w3.org/1999/xlink">
    <!-- Generator: Sketch 41.2 (35397) - http://www.bohemiancoding.com/sketch -->
    <title>mail_icon</title>
    <desc>Created with Sketch.</desc>
    <defs></defs>
    <g id="----" stroke="none" stroke-width="1" fill="none" fill-rule="evenodd">
        <g id="120ForgotPassword_sent" transform="translate(-488.000000, -331.000000)" stroke-width="2">
            <g id="card_placeholder" transform="translate(266.000000, 122.000000)">
                <g id="body" transform="translate(76.000000, 50.000000)">
                    <g id="Group" transform="translate(0.000000, 160.000000)">
                        <g id="mail_icon" transform="translate(147.000000, 0.000000)">
                            <g id="mail">
                                <path d="M40,33 L2,33 C0.9,33 0,32.1 0,31 L0,2 C0,0.9 0.9,0 2,0 L40,0 C41.1,0 42,0.9 42,2 L42,31 C42,32.1 41.1,33 40,33 Z" id="Shape" stroke="#4D4E4C"></path>
                                <path d="M0,0 L18.9,18 C20.1,19.1 21.9,19.1 23,18 L42,0" id="Shape" stroke="#35A1CE"></path>
                                <path d="M0,33 L18,17" id="Shape" stroke="#4D4E4C"></path>
                                <path d="M42,33 L24,17" id="Shape" stroke="#4D4E4C"></path>
                            </g>
                        </g>
                    </g>
                </g>
            </g>
        </g>
    </g>
</svg>