<?xml version="1.0" encoding="UTF-8"?>
<svg width="70px" height="50px" viewBox="0 0 70 50" version="1.1" xmlns="http://www.w3.org/2000/svg" xmlns:xlink="http://www.w3.org/1999/xlink">
    <!-- Generator: Sketch 41.2 (35397) - http://www.bohemiancoding.com/sketch -->
    <title>menu_dashboard</title>
    <desc>Created with Sketch.</desc>
    <defs></defs>
    <g id="Symbols" stroke="none" stroke-width="1" fill="none" fill-rule="evenodd">
        <g id="menu_dashboard" fill="#00A3DA">
            <g id="dashboard" transform="translate(26.000000, 15.000000)">
                <g id="Layer_1">
                    <path d="M17.5129297,1.66664062 L10.0130078,1.66664062 L10.0130078,0.833320312 C10.0130078,0.373125 9.63988281,0 9.1796875,0 C8.71949219,0 8.34636719,0.373125 8.34636719,0.833320312 L8.34636719,1.66664062 L0.846445312,1.66664062 C0.386210937,1.66664062 0.013125,2.03976562 0.013125,2.49996094 L0.013125,15.8330859 C0.013125,16.2932422 0.386210937,16.6664062 0.846445312,16.6664062 L4.49808594,16.6664062 L3.43441406,18.7937891 C3.22859375,19.2054687 3.39542969,19.7060156 3.80707031,19.9118359 C4.21878906,20.1176562 4.71929687,19.9507812 4.92503906,19.5391016 L6.36140625,16.6664063 L11.9979687,16.6664063 L13.4342969,19.5391016 C13.5803125,19.8311719 13.8745703,20 14.1802734,20 C14.3055078,20 14.4326562,19.9716016 14.5522656,19.9118359 C14.9639453,19.7060156 15.1307422,19.2054687 14.9249219,18.7937891 L13.86125,16.6664062 L17.5128906,16.6664062 C17.973125,16.6664062 18.3462109,16.2932422 18.3462109,15.8330859 L18.3462109,2.49996094 C18.34625,2.03976563 17.973125,1.66664062 17.5129297,1.66664062 Z M14.8757422,7.00601562 L10.9473828,10.9343359 C10.7910937,11.090625 10.5791016,11.1783984 10.3581641,11.1783984 C10.1371094,11.1783984 9.92515625,11.0905469 9.76890625,10.9342187 L8.00121094,9.16644531 L4.66214844,12.5055078 C4.49941406,12.6682812 4.28617187,12.7496875 4.07292969,12.7496875 C3.85964844,12.7496875 3.64636719,12.6682812 3.48371094,12.5055078 C3.15816406,12.1801172 3.15816406,11.6525 3.48367187,11.3270703 L7.41203125,7.39871094 C7.56832031,7.24242187 7.78023437,7.15464844 8.00125,7.15464844 C8.22226562,7.15464844 8.43425781,7.24242187 8.59050781,7.39871094 L10.3582031,9.16652344 L13.6972656,5.82746094 C14.0226953,5.50207031 14.5503516,5.50207031 14.8757422,5.82746094 C15.2011719,6.15292969 15.2011719,6.68054687 14.8757422,7.00601562 Z" id="Shape"></path>
                </g>
            </g>
        </g>
    </g>
</svg>