<?xml version="1.0" encoding="UTF-8"?>
<svg width="117px" height="117px" viewBox="0 0 117 117" version="1.1" xmlns="http://www.w3.org/2000/svg" xmlns:xlink="http://www.w3.org/1999/xlink">
    <!-- Generator: Sketch 41.2 (35397) - http://www.bohemiancoding.com/sketch -->
    <title>photo_placeholder</title>
    <desc>Created with Sketch.</desc>
    <defs></defs>
    <g id="AccountSettings" stroke="none" stroke-width="1" fill="none" fill-rule="evenodd">
        <g id="420-AccountDetails_Users_Update_Validation" transform="translate(-493.000000, -223.000000)">
            <g id="content" transform="translate(241.000000, 106.000000)">
                <g id="acc_details_form" transform="translate(2.000000, 62.000000)">
                    <g id="input_form" transform="translate(0.000000, 54.000000)">
                        <g id="photo_profile">
                            <g id="photo_placeholder" transform="translate(250.000000, 1.000000)">
                                <g>
                                    <circle id="Oval-5" fill="#D8D8D8" cx="58.3661313" cy="58.3661313" r="58.3661313"></circle>
                                    <g id="user-interaction-review_male-2" transform="translate(37.341772, 37.341772)" fill="#B7B7B7">
                                        <g id="male_1_">
                                            <path d="M21.4857624,25.7874674 C26.5948206,25.7874674 29.989943,18.9440827 30.4854303,17.2106873 C30.5216644,17.0847338 31.286079,16.6937917 31.3500391,16.5799074 C34.1156208,11.651803 31.0926421,11.0916927 31.0926421,11.0916927 C31.0926421,11.0916927 31.2342896,8.49486978 30.5926717,6.05514104 C30.5926717,6.05514104 28.9726145,0 21.4857625,0 C13.9989104,0 12.3788543,6.05514104 12.3788543,6.05514104 C11.7372363,8.49486978 11.8788828,11.0916927 11.8788828,11.0916927 C11.8788828,11.0916927 8.85590402,11.651803 11.6214845,16.5799074 C11.6854458,16.6937917 12.4498604,17.0847338 12.4860956,17.2106873 C12.9815829,18.9440827 16.376703,25.7874674 21.4857624,25.7874674 Z" id="Shape"></path>
                                            <path d="M25.1793764,23.8987342 C25.1793764,23.8987342 27.1269239,25.8413776 30.8339769,27.0196384 C36.0864217,28.6887238 40.5860734,31.8308245 40.9778839,40.1232648 C40.9778839,40.1232648 32.4772747,41.9660304 20.4889431,41.9660304 C8.5006115,41.9660304 0,40.123265 0,40.123265 C0.391833369,31.8308247 4.89146565,28.6887239 10.1439104,27.0196385 C13.8509633,25.8413777 15.7985087,23.8987343 15.7985087,23.8987343" id="Shape"></path>
                                        </g>
                                    </g>
                                </g>
                            </g>
                        </g>
                    </g>
                </g>
            </g>
        </g>
    </g>
</svg>