<?xml version="1.0" encoding="UTF-8"?>
<svg width="109px" height="109px" viewBox="0 0 109 109" version="1.1" xmlns="http://www.w3.org/2000/svg" xmlns:xlink="http://www.w3.org/1999/xlink">
    <!-- Generator: Sketch 41.2 (35397) - http://www.bohemiancoding.com/sketch -->
    <title>success_state_icon</title>
    <desc>Created with Sketch.</desc>
    <defs></defs>
    <g id="AccountSettings" stroke="none" stroke-width="1" fill="none" fill-rule="evenodd">
        <g id="400-AccountDetails_AccountSettings_UpdatePassword_Updated" transform="translate(-559.000000, -295.000000)">
            <g id="content" transform="translate(203.000000, 69.000000)">
                <g id="state" transform="translate(237.000000, 226.000000)">
                    <g id="success_state_icon" transform="translate(119.000000, 0.000000)">
                        <g id="icon">
                            <polygon id="Combined-Shape" fill="#00A3DA" points="48.0491186 64.7903858 34.2489272 50.7691301 31.4888889 53.5733812 48.0491186 70.398888 77.0295205 40.9542511 74.2694822 38.15"></polygon>
                            <path d="M54.5,109 C84.6057894,109 109,84.5934516 109,54.5 C109,24.4065484 84.6057894,0 54.5,0 C24.3942106,0 0,24.4065484 0,54.5 C0,84.5934516 24.3942106,109 54.5,109 Z M54.5,105.55854 C26.3368883,105.55854 3.49482142,82.7049199 3.49482142,54.5 C3.49482142,26.2950801 26.3368883,3.44146048 54.5,3.44146048 C82.6631117,3.44146048 105.505179,26.2950801 105.505179,54.5 C105.505179,82.7049199 82.6631117,105.55854 54.5,105.55854 Z" id="Oval" fill-opacity="0.101279438" fill="#4D4E4C"></path>
                        </g>
                    </g>
                </g>
            </g>
        </g>
    </g>
</svg>