<?xml version="1.0" encoding="UTF-8"?>
<svg width="42px" height="42px" viewBox="0 0 42 42" version="1.1" xmlns="http://www.w3.org/2000/svg" xmlns:xlink="http://www.w3.org/1999/xlink">
    <!-- Generator: Sketch 41.2 (35397) - http://www.bohemiancoding.com/sketch -->
    <title>Userinterface_blank-browser</title>
    <desc>Created with Sketch.</desc>
    <defs></defs>
    <g id="AccountSettings" stroke="none" stroke-width="1" fill="none" fill-rule="evenodd">
        <g id="261-Acccount_details_inactive" transform="translate(-593.000000, -1706.000000)" stroke-width="2" stroke="#C8CACB">
            <g id="content" transform="translate(243.000000, 106.000000)">
                <g id="user_list" transform="translate(0.000000, 1397.000000)">
                    <g id="empty_state" transform="translate(283.000000, 204.000000)">
                        <g id="Userinterface_blank-browser" transform="translate(68.000000, 0.000000)">
                            <g id="browser_1_">
                                <path d="M38.1818182,40 L1.81818182,40 C0.818181818,40 0,39.1818182 0,38.1818182 L0,1.81818182 C0,0.818181818 0.818181818,0 1.81818182,0 L38.1818182,0 C39.1818182,0 40,0.818181818 40,1.81818182 L40,38.1818182 C40,39.1818182 39.1818182,40 38.1818182,40 Z" id="Shape"></path>
                                <circle id="Oval" cx="3.63636364" cy="3.63636364" r="0.454545455"></circle>
                                <ellipse id="Oval" cx="7.27272727" cy="3.63636364" rx="0.454545455" ry="0.454545455"></ellipse>
                                <ellipse id="Oval" cx="10.9090909" cy="3.63636364" rx="0.454545455" ry="0.454545455"></ellipse>
                                <path d="M0,7.27272727 L40,7.27272727" id="Shape"></path>
                            </g>
                        </g>
                    </g>
                </g>
            </g>
        </g>
    </g>
</svg>